<svg width="196" height="196" viewBox="0 0 196 196" fill="none" xmlns="http://www.w3.org/2000/svg">
<path d="M171.15 38.2405H24.6021C17.6785 38.2405 11.9089 43.785 11.9089 50.9465V134.113C11.9089 141.044 17.4478 146.819 24.6021 146.819H34.295V176.851C34.295 183.089 37.7567 188.634 43.0648 191.406C45.1418 192.561 47.4497 193.023 49.7575 193.023C53.2193 193.023 56.4503 191.868 59.4505 189.788L107.915 147.05H171.15C178.074 147.05 183.843 141.506 183.843 134.344V51.1775C183.843 44.0159 178.074 38.2405 171.15 38.2405ZM52.7577 181.01C50.6807 182.627 48.8344 181.934 48.1421 181.472C47.4497 181.01 45.6034 179.855 45.6034 176.851V95.3019C45.6034 89.9885 49.2959 82.134 53.4501 78.6687L99.1453 38.9337V140.12L52.7577 181.01Z" fill="#0050FF"/>
<path d="M154.534 12.5975C154.534 5.66692 147.148 -1.03278 138.379 5.20472L108.607 30.3858H154.534V12.5975Z" fill="#0050FF"/>
</svg>
