<svg width="1800" height="450" viewBox="0 0 1800 450" fill="none" xmlns="http://www.w3.org/2000/svg">
<path d="M356.373 91.4046H28.4065C12.9121 91.4046 0 103.802 0 119.816V305.779C0 321.275 12.3956 334.19 28.4065 334.19H50.0988V401.343C50.0988 415.29 57.846 427.688 69.7251 433.887C74.3734 436.469 79.5383 437.502 84.7031 437.502C92.4504 437.502 99.6811 434.919 106.395 430.27L214.857 334.706H356.373C371.867 334.706 384.779 322.308 384.779 306.295V120.332C384.779 104.319 371.867 91.4046 356.373 91.4046ZM91.4174 410.641C86.7691 414.257 82.6372 412.707 81.0878 411.674C79.5383 410.641 75.4064 408.058 75.4064 401.343V218.996C75.4064 207.115 83.6701 189.552 92.9668 181.803L195.23 92.9545V319.209L91.4174 410.641Z" fill="#0050FF"/>
<path d="M319.186 34.066C319.186 18.569 302.659 3.58831 283.032 17.5355L216.406 73.8411H319.186V34.066Z" fill="#0050FF"/>
<path d="M599.151 341.122L532.251 93.9204H571.542L623.929 307.429H626.053L678.441 93.9204H717.731L650.477 341.122H599.151Z" fill="black"/>
<path d="M818.101 345.732C797.335 345.732 781.052 341.358 769.253 332.61C757.454 323.861 748.959 311.448 743.767 295.37C738.812 279.055 736.334 259.785 736.334 237.56C736.334 215.334 738.812 196.182 743.767 180.104C748.959 163.789 757.454 151.258 769.253 142.509C781.052 133.761 797.335 129.387 818.101 129.387C838.631 129.387 854.796 133.761 866.595 142.509C878.394 151.258 886.771 163.789 891.727 180.104C896.682 196.182 899.16 215.334 899.16 237.56C899.16 259.785 896.682 279.055 891.727 295.37C886.771 311.448 878.394 323.861 866.595 332.61C854.796 341.358 838.631 345.732 818.101 345.732ZM818.101 315.231C826.36 315.231 833.204 314.285 838.631 312.394C844.295 310.266 848.778 306.483 852.082 301.045C855.622 295.606 858.1 287.804 859.516 277.637C860.931 267.233 861.639 253.874 861.639 237.56C861.639 221.245 860.813 208.004 859.162 197.837C857.746 187.434 855.386 179.513 852.082 174.075C848.778 168.636 844.295 164.972 838.631 163.08C833.204 160.952 826.36 159.888 818.101 159.888C809.606 159.888 802.526 160.952 796.863 163.08C791.435 164.972 786.952 168.636 783.412 174.075C780.108 179.513 777.749 187.434 776.333 197.837C774.917 208.004 774.209 221.245 774.209 237.56C774.209 253.874 774.917 267.233 776.333 277.637C777.749 287.804 780.108 295.606 783.412 301.045C786.952 306.483 791.435 310.266 796.863 312.394C802.526 314.285 809.606 315.231 818.101 315.231Z" fill="black"/>
<path d="M1029.39 345.732C1012.64 345.732 997.769 342.068 984.791 334.738C972.048 327.408 962.018 315.704 954.703 299.626C947.624 283.548 944.084 262.623 944.084 236.85C944.084 215.807 946.562 198.31 951.517 184.36C956.473 170.173 963.08 159.179 971.34 151.376C979.835 143.337 989.746 137.662 1001.07 134.352C1012.64 131.042 1024.79 129.387 1037.53 129.387C1047.68 129.387 1057.59 130.096 1067.27 131.515C1077.18 132.934 1084.96 134.352 1090.63 135.771L1086.38 165.563C1081.19 164.853 1073.52 163.908 1063.37 162.725C1053.22 161.307 1042.84 160.597 1032.22 160.597C1023.26 160.597 1015.94 161.307 1010.28 162.725C1004.85 164.144 1000.72 166.39 997.887 169.464C993.404 174.193 989.746 182.587 986.914 194.645C984.083 206.704 982.667 221.245 982.667 238.269C982.667 254.111 983.847 266.879 986.206 276.573C988.566 286.267 991.28 293.597 994.348 298.562C997.651 303.527 1000.72 307.074 1003.55 309.202C1005.2 310.384 1007.56 311.685 1010.63 313.103C1013.93 314.285 1018.42 314.877 1024.08 314.877C1030.45 314.877 1037.18 314.049 1044.26 312.394C1051.34 310.502 1057.94 308.493 1064.08 306.365C1070.22 304.237 1075.17 302.345 1078.95 300.69C1082.72 299.035 1084.61 298.207 1084.61 298.207L1095.58 326.226C1095.58 326.226 1092.87 327.881 1087.44 331.191C1082.01 334.265 1074.34 337.457 1064.43 340.767C1054.52 344.077 1042.84 345.732 1029.39 345.732Z" fill="black"/>
<path d="M1183.85 345.732C1173 345.732 1163.2 343.132 1154.47 337.93C1145.98 332.728 1139.25 325.28 1134.3 315.586C1129.34 305.655 1126.86 293.597 1126.86 279.41C1126.86 262.386 1130.4 249.145 1137.48 239.688C1144.56 229.993 1154.47 223.137 1167.22 219.117C1180.19 214.861 1195.18 212.733 1212.17 212.733H1246.5C1246.5 201.384 1246.15 192.044 1245.44 184.715C1244.73 177.148 1243.08 171.592 1240.49 168.045C1238.6 165.208 1235.77 163.316 1231.99 162.371C1228.22 161.188 1223.61 160.597 1218.19 160.597C1208.98 160.597 1199.9 161.425 1190.93 163.08C1182.2 164.735 1174.06 166.745 1166.51 169.109C1159.19 171.237 1153.29 173.129 1148.81 174.784C1144.56 176.439 1142.44 177.267 1142.44 177.267L1131.82 149.248C1131.82 149.248 1134.06 148.302 1138.54 146.411C1143.26 144.283 1149.52 141.918 1157.3 139.318C1165.09 136.717 1173.82 134.47 1183.5 132.579C1193.17 130.451 1203.32 129.387 1213.94 129.387C1231.17 129.387 1244.85 132.579 1255 138.963C1265.15 145.11 1272.46 153.859 1276.95 165.208C1281.43 176.557 1283.67 190.035 1283.67 205.64V341.122H1259.96L1254.65 319.133H1252.52C1250.87 320.315 1247.92 322.324 1243.67 325.162C1239.42 327.999 1234.23 331.073 1228.1 334.383C1221.96 337.457 1215.12 340.058 1207.57 342.186C1200.02 344.55 1192.11 345.732 1183.85 345.732ZM1192.35 314.167C1200.13 314.167 1207.69 312.985 1215 310.621C1222.55 308.02 1229.16 305.419 1234.82 302.818C1240.49 299.981 1244.38 297.853 1246.5 296.434V243.944C1244.38 243.707 1240.25 243.352 1234.12 242.88C1228.22 242.17 1220.43 241.816 1210.75 241.816C1190.93 241.816 1178.54 243.944 1173.59 248.2C1170.99 250.328 1168.87 253.992 1167.22 259.194C1165.8 264.396 1165.09 270.898 1165.09 278.701C1165.09 291.232 1167.22 300.335 1171.46 306.01C1175.71 311.448 1182.67 314.167 1192.35 314.167Z" fill="black"/>
<path d="M1426.66 345.732C1419.82 345.732 1411.44 345.023 1401.53 343.604C1391.62 342.422 1381.59 340.767 1371.44 338.639C1361.53 336.511 1352.8 334.147 1345.25 331.546V73.3499H1382.41V136.48C1385.25 135.771 1389.38 134.943 1394.8 133.998C1400.23 132.815 1406.25 131.751 1412.86 130.806C1419.7 129.86 1426.54 129.387 1433.39 129.387C1455.1 129.387 1471.85 137.662 1483.65 154.213C1495.69 170.764 1501.7 197.483 1501.7 234.368C1501.7 257.066 1499.58 275.745 1495.33 290.405C1491.08 304.828 1485.3 316.059 1477.99 324.098C1470.91 332.137 1462.88 337.812 1453.92 341.122C1444.95 344.195 1435.86 345.732 1426.66 345.732ZM1425.6 313.813C1431.5 313.813 1436.22 313.458 1439.76 312.749C1443.3 312.039 1446.13 310.739 1448.25 308.847C1450.38 306.719 1452.62 303.173 1454.98 298.207C1457.34 293.242 1459.34 285.321 1461 274.445C1462.65 263.332 1463.47 247.963 1463.47 228.338C1463.47 209.186 1462.53 194.882 1460.64 185.424C1458.75 175.73 1456.16 169.464 1452.85 166.627C1448.37 163.08 1440.47 161.307 1429.14 161.307C1417.81 161.307 1407.9 162.371 1399.41 164.499C1391.15 166.627 1385.48 168.282 1382.41 169.464V308.847C1384.07 309.32 1386.9 310.029 1390.91 310.975C1395.16 311.685 1400.11 312.394 1405.78 313.103C1411.68 313.576 1418.28 313.813 1425.6 313.813Z" fill="black"/>
<path d="M1557.93 341.122V73.3499H1595.1V341.122H1557.93Z" fill="black"/>
<path d="M1670.45 399.996L1698.76 320.906L1631.86 133.998H1670.8L1715.4 281.183H1716.82L1761.06 133.998H1800L1729.91 329.063L1709.38 399.996H1670.45Z" fill="black"/>
</svg>
